<?xml version="1.0" encoding="utf-8"?>
<svg version="1.1" id="svg2" xmlns:svg="http://www.w3.org/2000/svg"
	 xmlns="http://www.w3.org/2000/svg" xmlns:xlink="http://www.w3.org/1999/xlink" x="0px" y="0px" viewBox="0 0 40 40"
	 style="enable-background:new 0 0 40 40;" xml:space="preserve">
<style type="text/css">
	.st0{fill:url(#shadow_1_);}
	.st1{fill:url(#circle3822_2_);}
	.st2{fill:url(#SVGID_1_);}
	.st3{fill-rule:evenodd;clip-rule:evenodd;fill:#FFFFFF;}
</style>
<g id="layer1" transform="translate(-152.58531,-164.89677)">

		<radialGradient id="shadow_1_" cx="274.4164" cy="88.0722" r="26.5" gradientTransform="matrix(0.7194 0 0 -0.7194 -24.0004 249.0373)" gradientUnits="userSpaceOnUse">
		<stop  offset="0" style="stop-color:#B8B8B8"/>
		<stop  offset="0.9" style="stop-color:#B8B8B8"/>
		<stop  offset="1" style="stop-color:#B8B8B8;stop-opacity:0"/>
	</radialGradient>
	<circle id="shadow" class="st0" cx="173.4" cy="185.7" r="19.1"/>
	<g>

			<linearGradient id="circle3822_2_" gradientUnits="userSpaceOnUse" x1="-49.0323" y1="413.6381" x2="-51.0489" y2="409.3624" gradientTransform="matrix(10.2857 0 0 -10.2857 690.9052 4409.1777)">
			<stop  offset="0" style="stop-color:#D8EBFF"/>
			<stop  offset="1" style="stop-color:#4FA9FF"/>
		</linearGradient>
		<circle id="circle3822_1_" class="st1" cx="172.4" cy="184.7" r="17.4">
		</circle>

			<linearGradient id="SVGID_1_" gradientUnits="userSpaceOnUse" x1="-49.3175" y1="410.1087" x2="-51.5224" y2="411.3313" gradientTransform="matrix(10.2857 0 0 -10.2857 690.9052 4409.1777)">
			<stop  offset="0" style="stop-color:#2B79E0"/>
			<stop  offset="1" style="stop-color:#008DF7"/>
		</linearGradient>
		<path class="st2" d="M172.4,202.7c-4.8,0-9.4-1.9-12.8-5.3c-3.4-3.4-5.3-7.9-5.3-12.8s1.9-9.4,5.3-12.8c3.4-3.4,7.9-5.3,12.8-5.3
			c4.8,0,9.4,1.9,12.8,5.3c3.4,3.4,5.3,7.9,5.3,12.8s-1.9,9.4-5.3,12.8C181.7,200.8,177.2,202.7,172.4,202.7z M172.4,167.9
			c-9.2,0-16.7,7.5-16.7,16.7s7.5,16.7,16.7,16.7s16.7-7.5,16.7-16.7S181.6,167.9,172.4,167.9z"/>
	</g>
	<path id="path3380" class="st3" d="M175.1,193.5c0,1.5-1.2,2.7-2.7,2.7s-2.7-1.2-2.7-2.7c0,0,0,0,0,0c0-1.5,1.2-2.7,2.7-2.7
		C173.9,190.8,175.1,192,175.1,193.5C175.1,193.5,175.1,193.5,175.1,193.5z"/>
	<path id="rect3382" class="st3" d="M175.4,173.9h-6l1,14h4L175.4,173.9z"/>
</g>
</svg>
